{
    "asset" : {
        "generator" : "Khronos glTF Blender I/O v1.8.19",
        "version" : "2.0"
    },
    "scene" : 0,
    "scenes" : [
        {
            "name" : "Scene",
            "nodes" : [
                0,
                9
            ]
        }
    ],
    "nodes" : [
        {
            "mesh" : 0,
            "name" : "bottom",
            "scale" : [
                0.0010000000474974513,
                0.0010000000474974513,
                0.0010000000474974513
            ],
            "translation" : [
                -0.9852426648139954,
                0.00321925338357687,
                0.015166422352194786
            ]
        },
        {
            "name" : "Bone007",
            "rotation" : [
                -0.0013617516960948706,
                -0.16623108088970184,
                -0.00807766430079937,
                0.9860528111457825
            ],
            "scale" : [
                0.9999997615814209,
                0.9999998807907104,
                0.9999998807907104
            ],
            "translation" : [
                20.74959373474121,
                9.537767255096696e-06,
                -7.247871747217971e-11
            ]
        },
        {
            "children" : [
                1
            ],
            "name" : "Bone006",
            "rotation" : [
                1.1338111981402943e-14,
                -1.7039060050058619e-12,
                0.03704937547445297,
                0.999313473701477
            ],
            "scale" : [
                1.000000238418579,
                1.000000238418579,
                1
            ],
            "translation" : [
                16.199750900268555,
                -5.283173959469423e-05,
                4.705746209365813e-11
            ]
        },
        {
            "children" : [
                2
            ],
            "name" : "Bone005",
            "rotation" : [
                2.654467425489311e-14,
                3.4176318459283594e-13,
                -0.020801041275262833,
                0.9997836351394653
            ],
            "scale" : [
                1,
                1.0000001192092896,
                1
            ],
            "translation" : [
                20.06391716003418,
                -0.0006227700505405664,
                1.0662595806287811e-11
            ]
        },
        {
            "children" : [
                3
            ],
            "name" : "Bone004",
            "rotation" : [
                1.421901841874764e-14,
                2.7277817591514486e-12,
                0.008263686671853065,
                0.9999658465385437
            ],
            "scale" : [
                1.0000003576278687,
                1.000000238418579,
                1
            ],
            "translation" : [
                20.403825759887695,
                -7.671335879422259e-06,
                -9.655747729153674e-11
            ]
        },
        {
            "children" : [
                4
            ],
            "name" : "Bone003",
            "rotation" : [
                1.9945657403269354e-14,
                -5.002315835861415e-12,
                -0.016802217811346054,
                0.9998588562011719
            ],
            "scale" : [
                0.9999997019767761,
                0.9999997615814209,
                1
            ],
            "translation" : [
                19.729736328125,
                7.233174983412027e-06,
                1.1119708626106117e-10
            ]
        },
        {
            "children" : [
                5
            ],
            "name" : "Bone002",
            "rotation" : [
                1.589653386702139e-08,
                3.592645070327194e-10,
                -0.00023221182345878333,
                1
            ],
            "translation" : [
                19.223817825317383,
                0.00028902647318318486,
                -1.3567978740525177e-08
            ]
        },
        {
            "children" : [
                6
            ],
            "name" : "Bone001",
            "rotation" : [
                -0.006202179007232189,
                -0.7070796489715576,
                -0.7070795297622681,
                0.0062021780759096146
            ],
            "scale" : [
                1,
                0.9999999403953552,
                1
            ],
            "translation" : [
                67.80445861816406,
                3.5863829452864593e-06,
                -82.04686737060547
            ]
        },
        {
            "mesh" : 1,
            "name" : "top",
            "skin" : 0
        },
        {
            "children" : [
                8,
                7
            ],
            "name" : "Armature",
            "rotation" : [
                0.7071068286895752,
                0,
                0,
                0.7071067094802856
            ],
            "scale" : [
                0.0010000000474974513,
                0.0010000000474974513,
                0.0010000000474974513
            ]
        }
    ],
    "animations" : [
        {
            "channels" : [
                {
                    "sampler" : 0,
                    "target" : {
                        "node" : 7,
                        "path" : "translation"
                    }
                },
                {
                    "sampler" : 1,
                    "target" : {
                        "node" : 7,
                        "path" : "rotation"
                    }
                },
                {
                    "sampler" : 2,
                    "target" : {
                        "node" : 7,
                        "path" : "scale"
                    }
                },
                {
                    "sampler" : 3,
                    "target" : {
                        "node" : 6,
                        "path" : "translation"
                    }
                },
                {
                    "sampler" : 4,
                    "target" : {
                        "node" : 6,
                        "path" : "rotation"
                    }
                },
                {
                    "sampler" : 5,
                    "target" : {
                        "node" : 6,
                        "path" : "scale"
                    }
                },
                {
                    "sampler" : 6,
                    "target" : {
                        "node" : 5,
                        "path" : "translation"
                    }
                },
                {
                    "sampler" : 7,
                    "target" : {
                        "node" : 5,
                        "path" : "rotation"
                    }
                },
                {
                    "sampler" : 8,
                    "target" : {
                        "node" : 5,
                        "path" : "scale"
                    }
                },
                {
                    "sampler" : 9,
                    "target" : {
                        "node" : 4,
                        "path" : "translation"
                    }
                },
                {
                    "sampler" : 10,
                    "target" : {
                        "node" : 4,
                        "path" : "rotation"
                    }
                },
                {
                    "sampler" : 11,
                    "target" : {
                        "node" : 4,
                        "path" : "scale"
                    }
                },
                {
                    "sampler" : 12,
                    "target" : {
                        "node" : 3,
                        "path" : "translation"
                    }
                },
                {
                    "sampler" : 13,
                    "target" : {
                        "node" : 3,
                        "path" : "rotation"
                    }
                },
                {
                    "sampler" : 14,
                    "target" : {
                        "node" : 3,
                        "path" : "scale"
                    }
                },
                {
                    "sampler" : 15,
                    "target" : {
                        "node" : 2,
                        "path" : "translation"
                    }
                },
                {
                    "sampler" : 16,
                    "target" : {
                        "node" : 2,
                        "path" : "rotation"
                    }
                },
                {
                    "sampler" : 17,
                    "target" : {
                        "node" : 2,
                        "path" : "scale"
                    }
                },
                {
                    "sampler" : 18,
                    "target" : {
                        "node" : 1,
                        "path" : "translation"
                    }
                },
                {
                    "sampler" : 19,
                    "target" : {
                        "node" : 1,
                        "path" : "rotation"
                    }
                },
                {
                    "sampler" : 20,
                    "target" : {
                        "node" : 1,
                        "path" : "scale"
                    }
                }
            ],
            "name" : "Armature|card_box_anim_open_05|BaseLayer.001",
            "samplers" : [
                {
                    "input" : 11,
                    "interpolation" : "LINEAR",
                    "output" : 12
                },
                {
                    "input" : 11,
                    "interpolation" : "LINEAR",
                    "output" : 13
                },
                {
                    "input" : 14,
                    "interpolation" : "LINEAR",
                    "output" : 15
                },
                {
                    "input" : 14,
                    "interpolation" : "LINEAR",
                    "output" : 16
                },
                {
                    "input" : 11,
                    "interpolation" : "LINEAR",
                    "output" : 17
                },
                {
                    "input" : 14,
                    "interpolation" : "LINEAR",
                    "output" : 18
                },
                {
                    "input" : 14,
                    "interpolation" : "LINEAR",
                    "output" : 19
                },
                {
                    "input" : 11,
                    "interpolation" : "LINEAR",
                    "output" : 20
                },
                {
                    "input" : 14,
                    "interpolation" : "LINEAR",
                    "output" : 21
                },
                {
                    "input" : 14,
                    "interpolation" : "LINEAR",
                    "output" : 22
                },
                {
                    "input" : 11,
                    "interpolation" : "LINEAR",
                    "output" : 23
                },
                {
                    "input" : 14,
                    "interpolation" : "LINEAR",
                    "output" : 24
                },
                {
                    "input" : 14,
                    "interpolation" : "LINEAR",
                    "output" : 25
                },
                {
                    "input" : 11,
                    "interpolation" : "LINEAR",
                    "output" : 26
                },
                {
                    "input" : 14,
                    "interpolation" : "LINEAR",
                    "output" : 27
                },
                {
                    "input" : 14,
                    "interpolation" : "LINEAR",
                    "output" : 28
                },
                {
                    "input" : 11,
                    "interpolation" : "LINEAR",
                    "output" : 29
                },
                {
                    "input" : 14,
                    "interpolation" : "LINEAR",
                    "output" : 30
                },
                {
                    "input" : 14,
                    "interpolation" : "LINEAR",
                    "output" : 31
                },
                {
                    "input" : 11,
                    "interpolation" : "LINEAR",
                    "output" : 32
                },
                {
                    "input" : 14,
                    "interpolation" : "LINEAR",
                    "output" : 33
                }
            ]
        }
    ],
    "materials" : [
        {
            "doubleSided" : true,
            "name" : "RED.001",
            "pbrMetallicRoughness" : {
                "baseColorFactor" : [
                    0,
                    0,
                    0,
                    1
                ],
                "metallicFactor" : 0,
                "roughnessFactor" : 0.5527864098548889
            }
        }
    ],
    "meshes" : [
        {
            "name" : "Mesh.002",
            "primitives" : [
                {
                    "attributes" : {
                        "POSITION" : 0,
                        "NORMAL" : 1,
                        "TEXCOORD_0" : 2
                    },
                    "indices" : 3,
                    "material" : 0
                }
            ]
        },
        {
            "name" : "Mesh.003",
            "primitives" : [
                {
                    "attributes" : {
                        "POSITION" : 4,
                        "NORMAL" : 5,
                        "TEXCOORD_0" : 6,
                        "JOINTS_0" : 7,
                        "WEIGHTS_0" : 8
                    },
                    "indices" : 9,
                    "material" : 0
                }
            ]
        }
    ],
    "skins" : [
        {
            "inverseBindMatrices" : 10,
            "joints" : [
                7,
                6,
                5,
                4,
                3,
                2,
                1
            ],
            "name" : "Armature"
        }
    ],
    "accessors" : [
        {
            "bufferView" : 0,
            "componentType" : 5126,
            "count" : 1696,
            "max" : [
                1050.2591552734375,
                55.12388610839844,
                1.6928960084915161
            ],
            "min" : [
                920.293701171875,
                -91.37985229492188,
                -32.765869140625
            ],
            "type" : "VEC3"
        },
        {
            "bufferView" : 1,
            "componentType" : 5126,
            "count" : 1696,
            "type" : "VEC3"
        },
        {
            "bufferView" : 2,
            "componentType" : 5126,
            "count" : 1696,
            "type" : "VEC2"
        },
        {
            "bufferView" : 3,
            "componentType" : 5123,
            "count" : 8916,
            "type" : "SCALAR"
        },
        {
            "bufferView" : 4,
            "componentType" : 5126,
            "count" : 1028,
            "max" : [
                0.06502678990364075,
                0.10152663290500641,
                0.012148148380219936
            ],
            "min" : [
                -0.06475640088319778,
                0.05752501264214516,
                -0.003681518603116274
            ],
            "type" : "VEC3"
        },
        {
            "bufferView" : 5,
            "componentType" : 5126,
            "count" : 1028,
            "type" : "VEC3"
        },
        {
            "bufferView" : 6,
            "componentType" : 5126,
            "count" : 1028,
            "type" : "VEC2"
        },
        {
            "bufferView" : 7,
            "componentType" : 5121,
            "count" : 1028,
            "type" : "VEC4"
        },
        {
            "bufferView" : 8,
            "componentType" : 5126,
            "count" : 1028,
            "type" : "VEC4"
        },
        {
            "bufferView" : 9,
            "componentType" : 5123,
            "count" : 5052,
            "type" : "SCALAR"
        },
        {
            "bufferView" : 10,
            "componentType" : 5126,
            "count" : 7,
            "type" : "MAT4"
        },
        {
            "bufferView" : 11,
            "componentType" : 5126,
            "count" : 51,
            "max" : [
                1.7
            ],
            "min" : [
                0.03333333333333333
            ],
            "type" : "SCALAR"
        },
        {
            "bufferView" : 12,
            "componentType" : 5126,
            "count" : 51,
            "type" : "VEC3"
        },
        {
            "bufferView" : 13,
            "componentType" : 5126,
            "count" : 51,
            "type" : "VEC4"
        },
        {
            "bufferView" : 14,
            "componentType" : 5126,
            "count" : 2,
            "max" : [
                1.7
            ],
            "min" : [
                0.03333333333333333
            ],
            "type" : "SCALAR"
        },
        {
            "bufferView" : 15,
            "componentType" : 5126,
            "count" : 2,
            "type" : "VEC3"
        },
        {
            "bufferView" : 16,
            "componentType" : 5126,
            "count" : 2,
            "type" : "VEC3"
        },
        {
            "bufferView" : 17,
            "componentType" : 5126,
            "count" : 51,
            "type" : "VEC4"
        },
        {
            "bufferView" : 18,
            "componentType" : 5126,
            "count" : 2,
            "type" : "VEC3"
        },
        {
            "bufferView" : 19,
            "componentType" : 5126,
            "count" : 2,
            "type" : "VEC3"
        },
        {
            "bufferView" : 20,
            "componentType" : 5126,
            "count" : 51,
            "type" : "VEC4"
        },
        {
            "bufferView" : 21,
            "componentType" : 5126,
            "count" : 2,
            "type" : "VEC3"
        },
        {
            "bufferView" : 22,
            "componentType" : 5126,
            "count" : 2,
            "type" : "VEC3"
        },
        {
            "bufferView" : 23,
            "componentType" : 5126,
            "count" : 51,
            "type" : "VEC4"
        },
        {
            "bufferView" : 24,
            "componentType" : 5126,
            "count" : 2,
            "type" : "VEC3"
        },
        {
            "bufferView" : 25,
            "componentType" : 5126,
            "count" : 2,
            "type" : "VEC3"
        },
        {
            "bufferView" : 26,
            "componentType" : 5126,
            "count" : 51,
            "type" : "VEC4"
        },
        {
            "bufferView" : 27,
            "componentType" : 5126,
            "count" : 2,
            "type" : "VEC3"
        },
        {
            "bufferView" : 28,
            "componentType" : 5126,
            "count" : 2,
            "type" : "VEC3"
        },
        {
            "bufferView" : 29,
            "componentType" : 5126,
            "count" : 51,
            "type" : "VEC4"
        },
        {
            "bufferView" : 30,
            "componentType" : 5126,
            "count" : 2,
            "type" : "VEC3"
        },
        {
            "bufferView" : 31,
            "componentType" : 5126,
            "count" : 2,
            "type" : "VEC3"
        },
        {
            "bufferView" : 32,
            "componentType" : 5126,
            "count" : 51,
            "type" : "VEC4"
        },
        {
            "bufferView" : 33,
            "componentType" : 5126,
            "count" : 2,
            "type" : "VEC3"
        }
    ],
    "bufferViews" : [
        {
            "buffer" : 0,
            "byteLength" : 20352,
            "byteOffset" : 0
        },
        {
            "buffer" : 0,
            "byteLength" : 20352,
            "byteOffset" : 20352
        },
        {
            "buffer" : 0,
            "byteLength" : 13568,
            "byteOffset" : 40704
        },
        {
            "buffer" : 0,
            "byteLength" : 17832,
            "byteOffset" : 54272
        },
        {
            "buffer" : 0,
            "byteLength" : 12336,
            "byteOffset" : 72104
        },
        {
            "buffer" : 0,
            "byteLength" : 12336,
            "byteOffset" : 84440
        },
        {
            "buffer" : 0,
            "byteLength" : 8224,
            "byteOffset" : 96776
        },
        {
            "buffer" : 0,
            "byteLength" : 4112,
            "byteOffset" : 105000
        },
        {
            "buffer" : 0,
            "byteLength" : 16448,
            "byteOffset" : 109112
        },
        {
            "buffer" : 0,
            "byteLength" : 10104,
            "byteOffset" : 125560
        },
        {
            "buffer" : 0,
            "byteLength" : 448,
            "byteOffset" : 135664
        },
        {
            "buffer" : 0,
            "byteLength" : 204,
            "byteOffset" : 136112
        },
        {
            "buffer" : 0,
            "byteLength" : 612,
            "byteOffset" : 136316
        },
        {
            "buffer" : 0,
            "byteLength" : 816,
            "byteOffset" : 136928
        },
        {
            "buffer" : 0,
            "byteLength" : 8,
            "byteOffset" : 137744
        },
        {
            "buffer" : 0,
            "byteLength" : 24,
            "byteOffset" : 137752
        },
        {
            "buffer" : 0,
            "byteLength" : 24,
            "byteOffset" : 137776
        },
        {
            "buffer" : 0,
            "byteLength" : 816,
            "byteOffset" : 137800
        },
        {
            "buffer" : 0,
            "byteLength" : 24,
            "byteOffset" : 138616
        },
        {
            "buffer" : 0,
            "byteLength" : 24,
            "byteOffset" : 138640
        },
        {
            "buffer" : 0,
            "byteLength" : 816,
            "byteOffset" : 138664
        },
        {
            "buffer" : 0,
            "byteLength" : 24,
            "byteOffset" : 139480
        },
        {
            "buffer" : 0,
            "byteLength" : 24,
            "byteOffset" : 139504
        },
        {
            "buffer" : 0,
            "byteLength" : 816,
            "byteOffset" : 139528
        },
        {
            "buffer" : 0,
            "byteLength" : 24,
            "byteOffset" : 140344
        },
        {
            "buffer" : 0,
            "byteLength" : 24,
            "byteOffset" : 140368
        },
        {
            "buffer" : 0,
            "byteLength" : 816,
            "byteOffset" : 140392
        },
        {
            "buffer" : 0,
            "byteLength" : 24,
            "byteOffset" : 141208
        },
        {
            "buffer" : 0,
            "byteLength" : 24,
            "byteOffset" : 141232
        },
        {
            "buffer" : 0,
            "byteLength" : 816,
            "byteOffset" : 141256
        },
        {
            "buffer" : 0,
            "byteLength" : 24,
            "byteOffset" : 142072
        },
        {
            "buffer" : 0,
            "byteLength" : 24,
            "byteOffset" : 142096
        },
        {
            "buffer" : 0,
            "byteLength" : 816,
            "byteOffset" : 142120
        },
        {
            "buffer" : 0,
            "byteLength" : 24,
            "byteOffset" : 142936
        }
    ],
    "buffers" : [
        {
            "byteLength" : 142960,
            "uri" : "data:application/octet-stream;base64,"
        }
    ]
}
