<svg width="53" height="65" viewBox="0 0 53 65" fill="none" xmlns="http://www.w3.org/2000/svg">
<path d="M20.2208 0.000139267C16.5453 0.000139267 13.3887 2.84236 13.3887 6.47761V32.9797C12.4149 31.8798 11.2944 30.5607 10.3714 29.6964C9.41337 28.8004 8.42241 28.0313 7.2359 27.5671C6.04948 27.1029 4.65313 27.0382 3.33191 27.4489C1.7467 27.9414 0.764348 29.2222 0.285011 30.6728C-0.194309 32.1233 -0.121023 33.9211 0.906289 35.435C4.21872 40.3154 7.80428 47.5126 12.2939 53.5961C16.7834 59.6794 22.4218 64.8946 29.9226 64.8946H34.0338C44.445 64.8946 52.9943 56.8992 52.9943 46.4378V26.3246C52.9943 22.9185 50.5812 19.8174 47.2265 19.8174C46.1886 19.8174 45.2644 20.1917 44.4463 20.7047C43.4421 18.6599 41.5308 17.1553 39.1513 17.1553C37.9411 17.1553 36.8603 17.6089 35.9275 18.25C34.7555 16.2343 32.5623 14.8485 30.0415 14.8485C28.9409 14.8485 27.9586 15.1647 27.0242 15.6177V6.47747C27.0249 2.84222 23.8974 0 20.2212 0L20.2208 0.000139267ZM20.2208 3.78649C21.9982 3.78649 23.2381 5.01715 23.2381 6.47761V29.9627C23.2308 30.4691 23.4269 30.9577 23.7828 31.3182C24.1386 31.6793 24.6246 31.8827 25.131 31.8827C25.638 31.8827 26.1233 31.6793 26.4792 31.3182C26.835 30.9577 27.0311 30.4691 27.0239 29.9627V21.1777C27.0357 21.1288 27.0456 21.0793 27.0536 21.0298C27.2067 19.7278 28.3859 18.6338 30.0411 18.6338C31.8172 18.6338 33.0571 19.8545 33.0585 21.3256L33.0875 30.4064C33.0809 30.9128 33.277 31.4014 33.6329 31.7619C33.9887 32.123 34.474 32.3264 34.9811 32.3264C35.4875 32.3264 35.9734 32.123 36.3293 31.7619C36.6845 31.4014 36.8812 30.9128 36.8739 30.4064L36.8442 23.3665V23.3367C36.8806 23.2509 36.9103 23.1618 36.9327 23.0707C37.1757 21.7634 38.1053 20.9414 39.1511 20.9414C40.3487 20.9414 41.4289 22.0387 41.4289 23.6622V30.5247C41.4217 31.0311 41.6178 31.5197 41.9736 31.8808C42.3295 32.2413 42.8154 32.4447 43.3218 32.4447C43.8289 32.4447 44.3142 32.2413 44.67 31.8808C45.0259 31.5197 45.222 31.0311 45.2147 30.5247V25.9989C45.2398 25.9217 45.2596 25.8425 45.2741 25.7626C45.4874 24.3708 46.3833 23.6037 47.2265 23.6037C48.1752 23.6037 49.2086 24.635 49.2079 26.3246V46.4378C49.2079 54.8623 42.5469 61.1087 34.0346 61.1087H29.9234C24.186 61.1087 19.546 57.045 15.3409 51.3479C11.1366 45.6508 7.60446 38.5541 4.04239 33.3052C3.73341 32.8503 3.70436 32.3419 3.86479 31.856C4.02522 31.3694 4.40288 31.0736 4.45635 31.0571C5.03009 30.8788 5.37605 30.9211 5.87584 31.1165C6.37629 31.3119 7.02728 31.755 7.79843 32.4773C9.34204 33.9212 11.2751 36.3581 13.9215 39.1026C14.4563 39.6546 15.2716 39.8289 15.9853 39.5437C16.6984 39.2584 17.1691 38.5698 17.1751 37.8013V6.47703C17.1751 5.01595 18.4447 3.78592 20.2213 3.78592L20.2208 3.78649Z" fill="white"/>
</svg>
